<?xml version="1.0" standalone="no"?>
<!DOCTYPE svg PUBLIC "-//W3C//DTD SVG 20010904//EN"
 "http://www.w3.org/TR/2001/REC-SVG-20010904/DTD/svg10.dtd">
<svg version="1.0" xmlns="http://www.w3.org/2000/svg"
 width="512.000000pt" height="512.000000pt" viewBox="0 0 512.000000 512.000000"
 preserveAspectRatio="xMidYMid meet">
<metadata>
Created by potrace 1.11, written by Peter Selinger 2001-2013
</metadata>
<g transform="translate(0.000000,512.000000) scale(0.100000,-0.100000)"
fill="#000000" stroke="none">
<path d="M1020 3940 l0 -60 190 0 190 0 0 -249 0 -250 -206 -3 c-190 -3 -207
-4 -220 -22 -12 -17 -14 -184 -14 -1107 0 -1184 -3 -1111 53 -1124 12 -3 719
-4 1570 -3 1520 3 1549 3 1563 22 12 17 14 183 14 1105 0 597 -4 1091 -8 1097
-19 29 -56 34 -241 34 l-191 0 0 250 0 250 190 0 190 0 0 60 0 60 -1540 0
-1540 0 0 -60z m2580 -310 l0 -250 -1040 0 -1040 0 0 250 0 250 1040 0 1040 0
0 -250z m450 -1380 l0 -1010 -1485 0 -1485 0 0 1010 0 1010 1485 0 1485 0 0
-1010z"/>
</g>
</svg>
